<?xml version="1.0" standalone="no"?>
<!DOCTYPE svg PUBLIC "-//W3C//DTD SVG 20010904//EN"
 "http://www.w3.org/TR/2001/REC-SVG-20010904/DTD/svg10.dtd">
<svg version="1.0" xmlns="http://www.w3.org/2000/svg"
 width="400.000000pt" height="400.000000pt" viewBox="0 0 400.000000 400.000000"
 preserveAspectRatio="xMidYMid meet">

<g transform="translate(0.000000,400.000000) scale(0.100000,-0.100000)"
fill="#000000" stroke="none">
<path d="M250 2005 l0 -1745 1240 0 1240 0 0 475 0 475 -765 0 -765 0 0 1270
0 1270 -475 0 -475 0 0 -1745z"/>
<path d="M2810 3195 l0 -555 -770 0 -770 0 0 -475 0 -475 770 0 770 0 0 -715
0 -715 473 2 472 3 3 1743 2 1742 -475 0 -475 0 0 -555z"/>
</g>
</svg>
